<svg xmlns="http://www.w3.org/2000/svg" viewBox="0 0 80 80" role="img" aria-label="Urme Bose">
  <defs>
    <radialGradient id="bg-light" cx="35%" cy="28%" r="82%">
      <stop offset="0%"   stop-color="#60a5fa"/>
      <stop offset="52%"  stop-color="#2563eb"/>
      <stop offset="100%" stop-color="#1a3282"/>
    </radialGradient>
    <linearGradient id="shine-light" x1="0" y1="0" x2="0" y2="1">
      <stop offset="0%"   stop-color="#fff" stop-opacity="0.18"/>
      <stop offset="100%" stop-color="#fff" stop-opacity="0"/>
    </linearGradient>
    <radialGradient id="vg" cx="50%" cy="50%" r="72%">
      <stop offset="0%"   stop-color="#000" stop-opacity="0"/>
      <stop offset="100%" stop-color="#000" stop-opacity="0.28"/>
    </radialGradient>
    <radialGradient id="bloom" cx="50%" cy="52%" r="44%">
      <stop offset="0%"   stop-color="#fff" stop-opacity="0.09"/>
      <stop offset="100%" stop-color="#fff" stop-opacity="0"/>
    </radialGradient>
    <filter id="ef" x="-40%" y="-40%" width="180%" height="180%">
      <feGaussianBlur stdDeviation="1.8"/>
    </filter>
    <filter id="nf" x="-100%" y="-100%" width="300%" height="300%">
      <feGaussianBlur stdDeviation="3.2"/>
    </filter>
  </defs>

  <rect width="80" height="80" rx="18" fill="url(#bg-light)"/>
  <rect width="80" height="80" rx="18" fill="url(#bloom)"/>
  <rect width="80" height="40" rx="18" fill="url(#shine-light)"/>
  <rect width="80" height="80" rx="18" fill="url(#vg)"/>
  <rect x="1.5" y="1.5" width="77" height="77" rx="16.5" fill="none" stroke="rgba(255,255,255,0.11)" stroke-width="1.5"/>

  <g filter="url(#ef)" fill="none" stroke-linecap="round">
    <line stroke="#fff" stroke-opacity="0.26" x1="40" y1="21" x2="20" y2="43" stroke-width="4.5"/>
    <line stroke="#fff" stroke-opacity="0.26" x1="40" y1="21" x2="60" y2="43" stroke-width="4.5"/>
    <line stroke="#fff" stroke-opacity="0.26" x1="20" y1="43" x2="28" y2="61" stroke-width="4"/>
    <line stroke="#fff" stroke-opacity="0.26" x1="60" y1="43" x2="52" y2="61" stroke-width="4"/>
    <line stroke="#fff" stroke-opacity="0.26" x1="28" y1="61" x2="52" y2="61" stroke-width="4"/>
    <line stroke="#fff" stroke-opacity="0.09" x1="20" y1="43" x2="52" y2="61" stroke-width="3"/>
    <line stroke="#fff" stroke-opacity="0.09" x1="60" y1="43" x2="28" y2="61" stroke-width="3"/>
  </g>

  <g fill="none" stroke-linecap="round" stroke="#fff">
    <line stroke-opacity="0.22" x1="20" y1="43" x2="52" y2="61" stroke-width="1.3"/>
    <line stroke-opacity="0.22" x1="60" y1="43" x2="28" y2="61" stroke-width="1.3"/>
    <line stroke-opacity="0.63" x1="40" y1="21" x2="20" y2="43" stroke-width="1.7"/>
    <line stroke-opacity="0.63" x1="40" y1="21" x2="60" y2="43" stroke-width="1.7"/>
    <line stroke-opacity="0.63" x1="20" y1="43" x2="28" y2="61" stroke-width="1.6"/>
    <line stroke-opacity="0.63" x1="60" y1="43" x2="52" y2="61" stroke-width="1.6"/>
    <line stroke-opacity="0.63" x1="28" y1="61" x2="52" y2="61" stroke-width="1.6"/>
  </g>

  <circle cx="40" cy="21" r="8.2" fill="none" stroke="#fff" stroke-opacity="0.28" stroke-width="0.75"/>
  <circle cx="40" cy="21" r="10.5" fill="none" stroke="#fff" stroke-opacity="0.15" stroke-width="0.75"/>
  <circle cx="40" cy="21" r="13.5" fill="none" stroke="#fff" stroke-opacity="0.07" stroke-width="0.5"/>

  <g opacity="0.38" filter="url(#nf)">
    <circle fill="#fff" cx="40" cy="21" r="7.5"/>
    <circle fill="#fff" cx="20" cy="43" r="5.5"/>
    <circle fill="#fff" cx="60" cy="43" r="5.5"/>
    <circle fill="#fff" cx="28" cy="61" r="5"/>
    <circle fill="#fff" cx="52" cy="61" r="5"/>
  </g>

  <circle fill="#fff" fill-opacity="0.90" cx="20" cy="43" r="4.5"/>
  <circle fill="#fff" fill-opacity="0.90" cx="60" cy="43" r="4.5"/>
  <circle fill="#fff" fill-opacity="0.85" cx="28" cy="61" r="4.2"/>
  <circle fill="#fff" fill-opacity="0.85" cx="52" cy="61" r="4.2"/>
  <circle fill="#fff" cx="40" cy="21" r="6.5"/>
  <circle fill="#2563eb" cx="40" cy="21" r="2.6"/>

  <circle fill="#fff" opacity="0.52" cx="37.8" cy="18.8" r="1.5"/>
  <circle fill="#fff" opacity="0.52" cx="17.8" cy="41.0" r="1.2"/>
  <circle fill="#fff" opacity="0.52" cx="57.8" cy="41.0" r="1.2"/>
  <circle fill="#fff" opacity="0.52" cx="25.8" cy="59.2" r="1.0"/>
  <circle fill="#fff" opacity="0.52" cx="49.8" cy="59.2" r="1.0"/>
</svg>
