<svg xmlns="http://www.w3.org/2000/svg" viewBox="0 0 1182.34 1333.88"><defs><style>.cls-1{fill:#16501d;}.cls-2{fill:#fea406;}.cls-3{fill:#140a7a;}.cls-4{fill:#fd0807;}.cls-5{fill:#50a2ca;}.cls-6{fill:#151011;}</style></defs><g id="Layer_2" data-name="Layer 2"><g id="Layer_1-2" data-name="Layer 1"><path class="cls-1" d="M244.65,3.06,120.76,144.71c109.91,159.81,33.05,437.5,33.05,437.5-29.4,110.39,7.95,202.71,7.95,202.71C202.43,908.41,365.9,964.85,365.9,964.85,516,1023.38,589.79,1093.4,589.79,1093.4s73.76-70,223.9-128.55c0,0,163.46-56.44,204.13-179.93,0,0,37.36-92.32,8-202.71,0,0-76.87-277.69,33-437.5L934.94,3.06Z"/><path class="cls-1" d="M591.18,1130.33c-83.69-79.45-274.26-141.33-345.1-189.2s-93.86-98.92-93.86-98.92c-48.54-80.46-41.39-184.56-40.28-201.94s-.85-21.39-.85-21.39c0-.16-11.76-33.71-58.61-25.12,0,0-47.17,9.09-34.71,55.33,0,0,5.1,27.15,36.69,46.63,0,0,31.84,21-2,66.24S7.09,811.15,3,860.9c.28,22.9,0,78.83,85.56,161.71,13.58,13.16,91.66,77.42,148.63,104.41s96.11,41.25,134.26,54.5,149.7,64.16,219.76,147.69c70.06-83.53,181.61-134.45,219.76-147.69S888.22,1154,945.2,1127s135-91.25,148.62-104.41c85.56-82.88,85.29-138.81,85.56-161.71-4.12-49.75-15.67-53.71-49.5-98.94s-2-66.24-2-66.24c31.58-19.48,36.68-46.63,36.68-46.63,12.46-46.24-34.7-55.33-34.7-55.33-46.86-8.59-58.62,25-58.62,25.12,0,0-2,4-.85,21.39s8.26,121.48-40.28,201.94c0,0-23,51-93.85,98.92S674.86,1050.88,591.18,1130.33Z"/><path class="cls-2" d="M589.79,1097.56l-2-1.91c-.73-.7-75.15-70.33-222.93-127.94C363.3,967.17,199.62,909.39,159,785.9c-.31-.74-37.34-94.37-8-204.5.77-2.79,75.21-278.16-32.61-434.92l-1.37-2L243.32,0H936.26l.89,1,125.47,143.48-1.37,2c-107.84,156.79-33.38,432.13-32.61,434.89,29.34,110.16-7.7,203.79-8.07,204.72C980,909.39,816.28,967.17,814.63,967.74,666.85,1025.36,592.54,1095,591.81,1095.65ZM124.55,145C232,304.43,157.44,580.27,156.67,583.05c-28.8,108.09,7.47,199.78,7.84,200.69C204.32,904.6,365.22,961.39,366.84,962c135.62,52.87,210.07,115.9,223,127.38,12.89-11.48,87.33-74.51,222.84-127.34,1.73-.6,162.65-57.45,202.38-178,.44-1.11,36.67-92.9,7.9-200.92-.76-2.75-75.37-278.59,32.12-438.07L933.61,6.11H246Z"/><path class="cls-2" d="M591.18,1333.88l-2.25-2.68C522.51,1252,417,1200.56,370.47,1184.41c-38-13.2-76.93-27.31-134.56-54.61-58.49-27.72-137.71-93.62-149.42-105C.94,942,.29,885.71,0,861.69v-.76c3.42-41.4,12.08-52.33,33-78.73,5-6.26,10.63-13.42,17.13-22.1,11.67-15.61,16.54-29.79,14.5-42.15a31.17,31.17,0,0,0-11.78-19.67c-32.26-19.9-37.77-47.45-38-48.61-3.8-14-2.61-26.44,3.57-36.63,10.74-17.72,32.58-22.11,33.5-22.29a84.47,84.47,0,0,1,15.17-1.46c32.25,0,44.56,22.1,46.63,28.22h0c.39.79,2.27,5.63,1.16,23C112,686,113.3,771.89,154.75,840.59c.39.83,23.75,51.22,93,98,26.72,18.06,69.85,37.78,119.79,60.62,80.27,36.69,171.11,78.22,223.68,127,52.57-48.78,143.41-90.31,223.67-127,49.94-22.84,93.07-42.56,119.8-60.62,69.2-46.76,92.56-97.15,92.79-97.65,41.62-69,42.94-154.92,40-200-1.14-17.78.74-22.62,1.13-23.41h0c2.08-6.12,14.39-28.22,46.63-28.22a84,84,0,0,1,15.15,1.46c.95.18,22.78,4.57,33.53,22.29,6.18,10.19,7.36,22.59,3.51,36.86-.16.93-5.66,28.48-38,48.44A31.2,31.2,0,0,0,1117.74,718c-2,12.36,2.83,26.54,14.5,42.15,6.49,8.68,12.16,15.84,17.12,22.1,20.92,26.4,29.58,37.33,33,78.44v1.05c-.28,24-.93,80.27-86.48,163.15-11.71,11.34-90.93,77.24-149.42,105-57.62,27.3-96.53,41.41-134.55,54.61-46.52,16.15-152,67.61-218.46,146.79ZM67.1,595.41A78.75,78.75,0,0,0,53,596.76c-.17,0-20.21,4.12-29.55,19.54-5.24,8.68-6.19,19.43-2.81,32,.1.49,5.39,26.35,35.34,44.83a36.69,36.69,0,0,1,14.47,23.68c2.4,14.15-2.86,30-15.62,47-6.53,8.74-12.24,15.94-17.23,22.23C16.92,812.16,9.18,821.93,5.93,861.16l0,.46c.27,23.24.9,77.67,84.62,158.77,11.59,11.23,90,76.44,147.83,103.86,57.36,27.17,96.1,41.22,134,54.37,46.53,16.16,151.45,67.27,218.81,145.94,67.36-78.67,172.27-129.78,218.8-145.94,37.87-13.15,76.61-27.2,134-54.37,57.85-27.42,136.24-92.63,147.83-103.86,83.72-81.1,84.35-135.53,84.62-158.77v-.76c-3.24-38.93-11-48.7-31.66-74.81-5-6.29-10.69-13.49-17.23-22.23-12.76-17.07-18-32.89-15.62-47a36.83,36.83,0,0,1,14.39-23.64c30-18.52,35.32-44.38,35.37-44.64,3.44-12.78,2.49-23.55-2.78-32.23-9.37-15.46-29.35-19.47-29.55-19.51a78.29,78.29,0,0,0-14.08-1.35c-30.31,0-39.79,20.93-41,24v.17l-.32.65s-1.54,4.18-.54,19.82c3,46.26,1.6,133.6-40.72,203.75-.78,1.79-24,52.06-94.75,99.86-27.13,18.33-70.46,38.15-120.64,61.09-80.88,37-172.56,78.89-224.08,127.8l-2,1.92-2-1.92c-51.52-48.91-143.19-90.82-224.07-127.8-50.18-22.94-93.52-42.76-120.65-61.09-70.74-47.8-94-98.07-94.92-100.19-42.15-69.82-43.52-157.16-40.58-203,1-16.08-.5-20.22-.56-20.39l-.22-.58C107.13,616.89,97.81,595.41,67.1,595.41Z"/><path class="cls-2" d="M352.58,725.72c10.28,5.36,29.84,17.3,47.95,30,21.92,15.25,34.4,26,42.91,38.48,8.45,11.57,11.37,24.11,4.9,33.72-6.15,9.15-20.2,11.9-40.88,4.11l-.23.32c16.06,15.7,23.33,34.2,14.19,47.67-6.53,9.6-18.12,12.45-31.45,10.67-15.63-1.95-37.27-12-68.87-34-17.61-12.27-30.37-22.22-37.78-28.6Zm8.63,64.56L373,798.49c19,13.22,32.41,15,37.64,7.25s-1-18.47-17.31-29.81c-8-5.52-12.62-8.33-15.75-9.87Zm-31.4,46.3c3.26,2.91,7.55,5.89,13.63,10.1,16.23,11.32,33.48,17.12,40.9,6.16,7.17-10.54-4.4-24.7-22.33-37.2l-12.26-8.51Z"/><path class="cls-2" d="M590,801.77v76c0,22.94,11,34.55,29.85,34.55,19.47,0,30.19-11,30.19-34.55v-76h37.1V876c0,40.83-25.6,60.24-68.57,60.24-41.46,0-65.64-18.61-65.64-60.61V801.77Z"/><path class="cls-2" d="M763.38,766.17C768,762,782.19,752,803.22,739.65c21.17-12.58,38.36-18.66,52.31-18.47,13.12-.27,25.23,5.41,32.08,16.44,6.92,11.24,8,23.44,2.79,35-6.79,15-21.95,29.28-42.27,41.33A96,96,0,0,1,836,820.31l25.07,40.58-28.89,16.87Zm60.51,34.49a81.83,81.83,0,0,0,11.93-6.15c18.28-10.84,25.32-24.34,18.21-35.8-6.38-10.4-19.67-11-37-.73-7,4.21-11.54,7.34-13.76,9.32Z"/><path class="cls-2" d="M173.72,138.55a31.93,31.93,0,0,1,7.85-.85c3.7,0,6,.54,7.92,2.32,1.87,1.52,3.23,4.33,3.23,8.06s-1.4,7.08-4.42,8.79V157c3.06,1.28,5.33,4.82,5.33,10.14a13.69,13.69,0,0,1-2.78,8.73c-2,2.38-5.22,3.73-10.56,3.73a31.24,31.24,0,0,1-6.57-.61Zm6,15.76h2c3.18,0,4.89-2,4.89-5.07s-1.55-4.76-4.3-4.76a11.18,11.18,0,0,0-2.59.24Zm0,18.26a12.81,12.81,0,0,0,2.35.12c2.75,0,5.18-1.58,5.18-5.92,0-4.15-2.43-5.8-5.46-5.8h-2.07Z"/><path class="cls-2" d="M203.87,168.6,202,179.17h-6.29l8.2-41.17h8l8.32,41.17h-6.53l-2.07-10.57Zm6.81-7L209,152.9c-.48-2.44-1-5.49-1.35-7.94h-.09c-.39,2.45-.79,5.56-1.23,7.94l-1.59,8.74Z"/><path class="cls-2" d="M223.75,179.17V138h7.09l5.57,15.09c1.6,4.33,3.19,9.46,4.38,14.11h.12c-.4-5.44-.51-11-.51-17.17V138H246v41.17H239.6l-5.74-15.88c-1.59-4.4-3.34-9.71-4.66-14.54l-.11.06c.16,5.44.23,11.24.23,18v12.4Z"/><path class="cls-2" d="M273.65,177.27a20.84,20.84,0,0,1-9,2.33c-4.9,0-8.44-1.9-10.91-5.56s-3.82-8.92-3.78-15c0-13.68,6.53-21.5,15.33-21.5a13.08,13.08,0,0,1,7.45,2L271.5,147a10.52,10.52,0,0,0-6.25-1.77c-5.06,0-8.88,4.4-8.88,13.31,0,8.49,3.47,13.5,8.44,13.5a5.56,5.56,0,0,0,3-.61v-8.61h-4.14v-7.27h10Z"/><path class="cls-2" d="M278.4,138h6.09v33.35h10.67v7.82H278.4Z"/><path class="cls-2" d="M305.24,168.6l-1.91,10.57H297l8.2-41.17h8l8.32,41.17H315l-2.07-10.57Zm6.81-7-1.67-8.74c-.48-2.44-.95-5.49-1.35-7.94H309c-.4,2.45-.8,5.56-1.24,7.94l-1.59,8.74Z"/><path class="cls-2" d="M325.12,138.55a35.75,35.75,0,0,1,8.2-.85c5.1,0,8.41,1.4,11,4.39,2.79,3.18,4.54,8.25,4.54,15.52,0,7.88-1.87,13.31-4.46,16.67-2.82,3.61-7.12,5.32-12.38,5.32a35,35,0,0,1-6.89-.61Zm6.09,33.59a7.13,7.13,0,0,0,2.11.19c5.5.06,9.08-4.58,9.08-14.42,0-8.55-3.22-13.07-8.44-13.07a8.25,8.25,0,0,0-2.75.37Z"/><path class="cls-2" d="M368.81,161.76h-9.88v9.77h11v7.64H352.84V138h16.57v7.64H358.93v8.55h9.88Z"/><path class="cls-2" d="M374.31,169.58a11.5,11.5,0,0,0,6.73,2.56c2.79,0,4.26-1.77,4.26-4.45s-1.27-4-4.5-5.81c-4.46-2.38-7.37-6.17-7.37-12.15,0-7,3.83-12.4,10.16-12.4a11.71,11.71,0,0,1,6.85,2.08l-1.35,7.51a9.36,9.36,0,0,0-5.62-2,3.69,3.69,0,0,0-3.9,4c0,2.63,1.51,3.79,5,5.8,4.73,2.69,7,6.48,7,12.28,0,6.91-3.47,12.77-10.84,12.77a12.68,12.68,0,0,1-7.6-2.51Z"/><path class="cls-2" d="M401.71,138v15.82h10V138h6.05v41.17h-6.05V161.94h-10v17.23h-6.09V138Z"/><path class="cls-2" d="M437.17,138v23.7c0,7.08,1.75,10.69,4.85,10.69S447,169,447,161.7V138H453v23.09c0,12.7-4.19,18.75-11.2,18.75-6.76,0-10.75-5.74-10.75-18.87V138Z"/><path class="cls-2" d="M458.28,179.17V138h7.08l5.58,15.09c1.59,4.33,3.18,9.46,4.38,14.11h.12c-.4-5.44-.52-11-.52-17.17V138h5.58v41.17h-6.38l-5.73-15.88c-1.59-4.4-3.34-9.71-4.66-14.54l-.12.06c.16,5.44.24,11.24.24,18v12.4Z"/><path class="cls-2" d="M491.85,138v41.17h-6.09V138Z"/><path class="cls-2" d="M503.44,179.17,494.84,138h6.65l3.27,17.41c.91,4.88,1.75,9.59,2.39,14.72h.12c.67-4.95,1.51-9.84,2.43-14.54L513.12,138h6.45l-9,41.17Z"/><path class="cls-2" d="M538.41,161.76h-9.87v9.77h11v7.64H522.44V138H539v7.64H528.54v8.55h9.87Z"/><path class="cls-2" d="M543.71,138.55a35.25,35.25,0,0,1,8.09-.85c4,0,6.77.91,8.68,3.23,1.59,2,2.47,4.83,2.47,8.62,0,5.25-2.43,8.85-4.74,10.13v.19c1.87,1.16,2.91,3.91,3.58,7.69.84,4.65,1.68,10,2.19,11.61h-6.21a73.41,73.41,0,0,1-1.87-9.59c-.72-5.13-1.87-6.54-4.34-6.6h-1.83v16.19h-6Zm6,17.71h2.39c3,0,4.81-2.32,4.81-5.92,0-3.79-1.67-5.68-4.45-5.74a10.2,10.2,0,0,0-2.75.3Z"/><path class="cls-2" d="M567.53,169.58a11.53,11.53,0,0,0,6.73,2.56c2.79,0,4.26-1.77,4.26-4.45s-1.27-4-4.5-5.81c-4.45-2.38-7.36-6.17-7.36-12.15,0-7,3.82-12.4,10.15-12.4a11.68,11.68,0,0,1,6.85,2.08l-1.35,7.51a9.36,9.36,0,0,0-5.62-2,3.69,3.69,0,0,0-3.9,4c0,2.63,1.51,3.79,5,5.8,4.74,2.69,7,6.48,7,12.28,0,6.91-3.47,12.77-10.83,12.77a12.69,12.69,0,0,1-7.61-2.51Z"/><path class="cls-2" d="M594.94,138v41.17h-6.1V138Z"/><path class="cls-2" d="M605.37,145.82h-7.21V138h20.63v7.82h-7.32v33.35h-6.1Z"/><path class="cls-2" d="M628.51,179.17V162.31L620,138H627l2.75,9.9c.83,3,1.39,5.19,2.07,7.87h.08c.6-2.56,1.23-4.94,2-7.87l2.71-9.9h6.81l-8.84,24v17.17Z"/><path class="cls-2" d="M678.94,158.16c0,13.49-5.34,21.68-13.19,21.68s-12.62-9.22-12.62-21c0-12.34,5.14-21.56,13.06-21.56C674.44,137.33,678.94,146.8,678.94,158.16Zm-19.4.55c0,8.06,2.47,13.74,6.53,13.74s6.45-6,6.45-14c0-7.39-2.31-13.74-6.49-13.74S659.54,150.71,659.54,158.71Z"/><path class="cls-2" d="M682.92,138h16.41v7.64H689V155h9.63v7.58H689v16.55h-6.1Z"/><path class="cls-2" d="M712,138.55a32.81,32.81,0,0,1,8.21-.85c3.74,0,6.41,1.09,8.2,3.29a15.27,15.27,0,0,1,2.86,9.53c0,4-.87,7.45-2.46,9.77a10.06,10.06,0,0,1-8.73,4.34,10.28,10.28,0,0,1-2.07-.18v14.72h-6Zm6,18.69a6.28,6.28,0,0,0,2,.25c3.22,0,5.21-2.51,5.21-6.72,0-3.79-1.71-6.05-4.74-6.05a7.07,7.07,0,0,0-2.51.36Z"/><path class="cls-2" d="M735.1,138.55a35.18,35.18,0,0,1,8.09-.85c4,0,6.77.91,8.68,3.23,1.59,2,2.47,4.83,2.47,8.62,0,5.25-2.43,8.85-4.74,10.13v.19c1.87,1.16,2.91,3.91,3.58,7.69.84,4.65,1.68,10,2.19,11.61h-6.21a73.41,73.41,0,0,1-1.87-9.59c-.72-5.13-1.87-6.54-4.34-6.6h-1.83v16.19h-6Zm6,17.71h2.38c3,0,4.82-2.32,4.82-5.92,0-3.79-1.67-5.68-4.46-5.74a10.1,10.1,0,0,0-2.74.3Z"/><path class="cls-2" d="M783.13,158.16c0,13.49-5.33,21.68-13.18,21.68s-12.62-9.22-12.62-21c0-12.34,5.14-21.56,13.06-21.56C778.64,137.33,783.13,146.8,783.13,158.16Zm-19.39.55c0,8.06,2.47,13.74,6.53,13.74s6.45-6,6.45-14c0-7.39-2.31-13.74-6.49-13.74S763.74,150.71,763.74,158.71Z"/><path class="cls-2" d="M787.12,138h16.41v7.64H793.21V155h9.64v7.58h-9.64v16.55h-6.09Z"/><path class="cls-2" d="M824.08,161.76H814.2v9.77h11v7.64H808.11V138h16.57v7.64H814.2v8.55h9.88Z"/><path class="cls-2" d="M829.58,169.58a11.5,11.5,0,0,0,6.73,2.56c2.79,0,4.26-1.77,4.26-4.45s-1.27-4-4.5-5.81c-4.46-2.38-7.37-6.17-7.37-12.15,0-7,3.83-12.4,10.16-12.4a11.68,11.68,0,0,1,6.85,2.08l-1.35,7.51a9.36,9.36,0,0,0-5.62-2,3.69,3.69,0,0,0-3.9,4c0,2.63,1.51,3.79,5,5.8,4.73,2.69,7,6.48,7,12.28,0,6.91-3.47,12.77-10.84,12.77a12.68,12.68,0,0,1-7.6-2.51Z"/><path class="cls-2" d="M851.09,169.58a11.5,11.5,0,0,0,6.73,2.56c2.79,0,4.26-1.77,4.26-4.45s-1.27-4-4.5-5.81c-4.46-2.38-7.37-6.17-7.37-12.15,0-7,3.83-12.4,10.16-12.4a11.68,11.68,0,0,1,6.85,2.08l-1.35,7.51a9.36,9.36,0,0,0-5.62-2,3.69,3.69,0,0,0-3.9,4c0,2.63,1.51,3.79,5,5.8,4.73,2.69,7,6.48,7,12.28,0,6.91-3.47,12.77-10.84,12.77a12.68,12.68,0,0,1-7.6-2.51Z"/><path class="cls-2" d="M878.49,138v41.17H872.4V138Z"/><path class="cls-2" d="M908.32,158.16c0,13.49-5.33,21.68-13.18,21.68s-12.62-9.22-12.62-21c0-12.34,5.14-21.56,13.06-21.56C903.82,137.33,908.32,146.8,908.32,158.16Zm-19.39.55c0,8.06,2.47,13.74,6.53,13.74s6.45-6,6.45-14c0-7.39-2.31-13.74-6.49-13.74S888.93,150.71,888.93,158.71Z"/><path class="cls-2" d="M912.31,179.17V138h7.09L925,153.09c1.6,4.33,3.19,9.46,4.38,14.11h.12c-.39-5.44-.51-11-.51-17.17V138h5.57v41.17h-6.37l-5.73-15.88c-1.6-4.4-3.35-9.71-4.66-14.54l-.12.06c.16,5.44.24,11.24.24,18v12.4Z"/><path class="cls-2" d="M946.05,168.6l-1.91,10.57h-6.3L946.05,138h8l8.32,41.17H955.8l-2.07-10.57Zm6.81-7-1.68-8.74c-.47-2.44-.95-5.49-1.35-7.94h-.08c-.4,2.45-.8,5.56-1.23,7.94l-1.6,8.74Z"/><path class="cls-2" d="M965.92,138H972v33.35h10.67v7.82H965.92Z"/><path class="cls-2" d="M986.48,169.58a11.5,11.5,0,0,0,6.73,2.56c2.79,0,4.26-1.77,4.26-4.45s-1.28-4-4.5-5.81c-4.46-2.38-7.37-6.17-7.37-12.15,0-7,3.82-12.4,10.16-12.4a11.73,11.73,0,0,1,6.85,2.08l-1.36,7.51a9.3,9.3,0,0,0-5.61-2,3.7,3.7,0,0,0-3.91,4c0,2.63,1.52,3.79,5,5.8,4.74,2.69,7,6.48,7,12.28,0,6.91-3.46,12.77-10.83,12.77a12.71,12.71,0,0,1-7.61-2.51Z"/><path class="cls-3" d="M589.65,527.91,400.72,426.25A223.27,223.27,0,0,0,376.38,528c0,121.07,95.4,219.22,213.13,219.39V528Z"/><path class="cls-4" d="M778.81,426.14c-35.7-69.87-106.92-117.55-189-117.55S436.4,356.33,400.72,426.25L589.65,527.91Z"/><path class="cls-5" d="M778.81,426.14,589.65,527.91l.14.07V747.37c117.87,0,213.42-98.22,213.42-219.39A223.3,223.3,0,0,0,778.81,426.14Z"/><polygon class="cls-6" points="591.28 748.9 588.17 748.85 588.02 747.37 588.02 527.05 589.52 526.26 591.14 526.98 591.28 527.98 591.28 748.9"/><path class="cls-2" d="M591,748.89h-1.49C471.17,748.73,374.89,649.63,374.89,528A226.52,226.52,0,0,1,399.4,425.54l.69-1.35,192.8,103.74-1.89,1ZM401.35,428.32A223.32,223.32,0,0,0,377.86,528C377.86,647.44,472,744.84,588,745.83V528.76Z"/><path class="cls-2" d="M589.65,529.63,398.71,426.9l.69-1.36c37.29-73.08,110.24-118.47,190.39-118.47s153,45.35,190.33,118.36l.7,1.35Zm-186.92-104L589.65,526.18,776.8,425.49c-37-71.2-108.51-115.37-187-115.37S439.71,354.34,402.73,425.61Z"/><path class="cls-2" d="M589.79,748.9h-1.48v-220l-1.73-.92,2.39-1.44L779.44,424.07l.68,1.36A226.26,226.26,0,0,1,804.69,528C804.69,649.8,708.29,748.9,589.79,748.9Zm1.49-220.14V745.84C707.45,745,801.72,647.6,801.72,528a223.38,223.38,0,0,0-23.54-99.78Z"/><polygon class="cls-2" points="591.28 748.9 588.17 748.85 588.02 747.37 588.02 527.05 589.52 526.26 591.14 526.98 591.28 527.98 591.28 748.9"/><path class="cls-2" d="M65.81,914.79l37.4-25.08,18.6,27.72-6.33,4.25L101.94,901.5l-8.28,5.56,12.59,18.78-6.3,4.23-12.6-18.78-10.17,6.83,14,20.89-6.3,4.23Z"/><path class="cls-2" d="M88.9,948.65l27.8-4,6.91-24.71,7,8-4.87,16.35,16.7-3,7,7.89-25.67,4L116.6,980l-7.25-8.22L114.42,954l-18.3,2.79Z"/><path class="cls-2" d="M155.23,992.36l4.78,7.91q-6.39,4.22-12.29,3.78c-3.94-.27-7.72-2-11.35-5.2a19.35,19.35,0,0,1-7-14.33q-.3-8.41,6.71-16.4,7.42-8.46,15.89-9.29t15.58,5.4q6.19,5.46,6.85,12.53a17.76,17.76,0,0,1-2,9.27l-8.18-4.33A9.29,9.29,0,0,0,162,969.76a10.26,10.26,0,0,0-8.48-2.66q-4.71.64-10,6.69-5.64,6.42-5.72,11.17a10,10,0,0,0,3.61,8,9.14,9.14,0,0,0,6.2,2.39C150,995.33,152.49,994.34,155.23,992.36Z"/><path class="cls-2" d="M159.54,1017.06l25.7-37,27.42,19.06-4.36,6.25-19.94-13.87-5.7,8.2,18.57,12.9-4.34,6.24L178.33,1006l-7,10.06L192,1030.38l-4.33,6.23Z"/><path class="cls-2" d="M196.56,1042l22.08-38.81,7.9,4.5-18.33,32.22,19.65,11.18-3.75,6.59Z"/><path class="cls-2" d="M231.86,1061.53l19.27-40.3,8.2,3.92-16,33.46,20.39,9.74-3.27,6.85Z"/><path class="cls-2" d="M266.86,1077.94l17.77-41.38,30.68,13.18-3,7L290,1047.15l-4,9.17,20.78,8.92-3,7-20.76-8.91-4.84,11.26,23.11,9.92-3,7Z"/><path class="cls-2" d="M305.59,1094.36,323.33,1053l8.13,3.48,5.09,34.9,11.85-27.63,7.76,3.32-17.75,41.39-8.38-3.6-5.1-34.14-11.58,27Z"/><path class="cls-2" d="M379.84,1109.39l6.82,6.26q-4.94,5.82-10.73,7.08t-12.35-1.8a19.34,19.34,0,0,1-10.79-11.77q-2.66-8,1.83-17.63,4.74-10.18,12.62-13.39c5.25-2.13,10.75-1.86,16.46.8q7.5,3.46,10.11,10.09a17.71,17.71,0,0,1,.69,9.46l-9.07-1.85a9.29,9.29,0,0,0-5.42-10.85,10.25,10.25,0,0,0-8.88-.16q-4.35,1.95-7.73,9.24-3.6,7.74-2.35,12.32a10,10,0,0,0,5.72,6.65,9.09,9.09,0,0,0,6.62.55C375.62,1113.72,377.77,1112.06,379.84,1109.39Z"/><path class="cls-2" d="M387.9,1131.42l19.39-40.64,30.13,14.38-3.28,6.88-21.93-10.47-4.29,9,20.4,9.73-3.27,6.85-20.4-9.73-5.28,11,22.7,10.85-3.27,6.84Z"/><path class="cls-2" d="M450,1161.7l17-33.31-11.89-6.08,3.46-6.78,31.86,16.29L487,1138.6l-11.86-6.06-17,33.3Z"/><path class="cls-2" d="M475.15,1174.64l21.71-39.45,8,4.38-8.54,15.52,15.6,8.59,8.55-15.52,8,4.38L506.69,1192l-8-4.38,9.49-17.25-15.61-8.59L483.12,1179Z"/><path class="cls-2" d="M515,1197.75l21.24-39.7,16.87,9c4.25,2.28,7.14,4.28,8.68,6a10.34,10.34,0,0,1,2.58,6.27,13,13,0,0,1-1.61,7.18,12,12,0,0,1-6.58,6c-2.79,1-6.07.83-9.82-.54a21,21,0,0,1,2.51,5.63,51.27,51.27,0,0,1,1.12,8.89l.7,10.34-9.58-5.13L539.88,1200a62.27,62.27,0,0,0-1.1-8.1,7,7,0,0,0-1.53-2.94,14.78,14.78,0,0,0-3.8-2.61l-1.62-.87L523,1202Zm20.27-18.62,5.93,3.17q5.77,3.09,7.47,3.37a4.86,4.86,0,0,0,3.15-.48,5.93,5.93,0,0,0,2.4-2.54,5.4,5.4,0,0,0,.66-3.81,5.57,5.57,0,0,0-2.18-3.18c-.61-.43-2.53-1.52-5.78-3.26l-6.26-3.35Z"/><path class="cls-2" d="M570.24,1198.33a28.61,28.61,0,0,1,3.38-11.24,21.13,21.13,0,0,1,4.87-5.64,17.68,17.68,0,0,1,6.25-3.36,24.72,24.72,0,0,1,9.85-.64q9.88,1.15,15.11,8t3.94,17.74q-1.25,10.83-7.85,16.26t-16.46,4.29q-10-1.15-15.15-7.93T570.24,1198.33Zm9.34.78q-.89,7.59,2.17,11.93a12.14,12.14,0,0,0,17.76,2.09q3.91-3.5,4.83-11.27t-2-11.86a11.5,11.5,0,0,0-8.52-4.83,11.62,11.62,0,0,0-9.45,2.79Q580.47,1191.4,579.58,1199.11Z"/><path class="cls-2" d="M616.16,1181.05l7.85-4.58,12.28,21.07a48.72,48.72,0,0,0,4.08,6.33,7.29,7.29,0,0,0,4.63,2.44,9.65,9.65,0,0,0,6-1.58c2.24-1.3,3.65-2.73,4.25-4.3a6.28,6.28,0,0,0,.09-4.55,49.85,49.85,0,0,0-3.51-6.81l-12.54-21.52,7.86-4.58,11.91,20.43a60.49,60.49,0,0,1,5.12,10.28,12.61,12.61,0,0,1,.5,6.24,13.62,13.62,0,0,1-2.73,5.84,22.78,22.78,0,0,1-6.79,5.55c-3.72,2.16-6.79,3.38-9.2,3.63a13.8,13.8,0,0,1-6.51-.69,12.47,12.47,0,0,1-4.71-3,54.34,54.34,0,0,1-6.52-9.42Z"/><path class="cls-2" d="M688.5,1171.78l-3.65-6.64,17.18-9.43,8.63,15.72a24.51,24.51,0,0,1-4.92,8.26,30.08,30.08,0,0,1-8.61,7.12,24.82,24.82,0,0,1-12.23,3.33,18.92,18.92,0,0,1-11-3.63,27.59,27.59,0,0,1-8.08-9.26,26,26,0,0,1-3.42-12.38,19.77,19.77,0,0,1,3.53-11.5,23.15,23.15,0,0,1,8.37-7.14q7.37-4.05,13.18-3.23a16,16,0,0,1,10,5.61l-7.11,5.83a9.58,9.58,0,0,0-5.66-2.88A10.89,10.89,0,0,0,678,1153a12.3,12.3,0,0,0-6.49,7.87c-.85,3.33-.07,7.17,2.31,11.52,2.57,4.69,5.54,7.62,8.9,8.82a11.88,11.88,0,0,0,10.12-1,15.5,15.5,0,0,0,4.48-3.74,19.19,19.19,0,0,0,3-4.75l-2.74-5Z"/><path class="cls-2" d="M720.85,1173.15l-20.75-40,8.07-4.18,8.17,15.72,15.8-8.2L724,1120.78l8.07-4.18,20.75,40-8.07,4.2-9.07-17.48-15.81,8.21,9.07,17.47Z"/><path class="cls-2" d="M776.64,1144.82l-19.26-40.7,8.22-3.89,8.55,18.08,8.05-25.94,11-5.23-7.83,23.11,27.92,17.2-10.63,5-20.23-13.81-3.44,10,5.82,12.29Z"/><path class="cls-2" d="M817.53,1125.6l-18.55-41,8.06-3.64,29.18,19.8-12.39-27.4,7.7-3.48,18.55,41-8.31,3.77-28.64-19.28,12.1,26.76Z"/><path class="cls-2" d="M848.06,1087.45a28.68,28.68,0,0,1-2.78-11.4,21.09,21.09,0,0,1,1.35-7.34,17.43,17.43,0,0,1,3.69-6.06,24.72,24.72,0,0,1,8.16-5.55q9.1-4,17.06-.78t12.4,13.3q4.39,10,1.46,18t-12,12q-9.18,4.06-17.08.84T848.06,1087.45Zm8.45-4.07q3.09,7,7.91,9.19a11.51,11.51,0,0,0,9.8,0,11.39,11.39,0,0,0,6.58-7.18q1.62-5-1.55-12.16t-7.77-9.2a11.45,11.45,0,0,0-9.78.16,11.57,11.57,0,0,0-6.74,7.18Q853.37,1076.28,856.51,1083.38Z"/><path class="cls-2" d="M909.38,1084.76l-28-36.86,8.52-3.76,18.69,25.56-5-31.63,9.89-4.36,19.92,25.59-6.37-31.57,8.37-3.69,8.17,45.61-8.82,3.89L913,1046.36l5.4,34.41Z"/><path class="cls-2" d="M959.65,1062.29l-20.76-39.54,8.06-4.23,17.23,32.83,20-10.51,3.53,6.72Z"/><path class="cls-2" d="M995.36,1043.1l-24.51-37.78,28-18.17,4.15,6.4-20.38,13.21,5.43,8.38,19-12.31,4.13,6.37-19,12.31,6.66,10.28L1020,1018.1l4.13,6.36Z"/><path class="cls-2" d="M1004,983.51l12.79-10.6a32.87,32.87,0,0,1,7.14-4.82,15.11,15.11,0,0,1,7.88-1.13,19.5,19.5,0,0,1,8,2.88,33.17,33.17,0,0,1,7.93,7.24,29.46,29.46,0,0,1,5.06,8.27,19.89,19.89,0,0,1,1.36,9.19,16,16,0,0,1-2.62,6.85,27.84,27.84,0,0,1-5.59,5.87l-13.17,10.92Zm11.86.06,19,23,5.23-4.33a25.24,25.24,0,0,0,4-3.84,8.46,8.46,0,0,0,1.63-3.79,9.45,9.45,0,0,0-1-4.86,28.63,28.63,0,0,0-4.55-6.93,26.45,26.45,0,0,0-5.83-5.59,10.34,10.34,0,0,0-4.76-1.71,8.67,8.67,0,0,0-4.6,1,42,42,0,0,0-6,4.43Z"/><path class="cls-2" d="M1072.19,959.41l-5.59-5.13,13.26-14.42L1093.07,952a24.89,24.89,0,0,1-2,9.39,30.06,30.06,0,0,1-5.88,9.51,24.51,24.51,0,0,1-10.52,7.06,18.92,18.92,0,0,1-11.58.08,27.31,27.31,0,0,1-10.62-6.18,26,26,0,0,1-7.21-10.63,19.9,19.9,0,0,1-.33-12,23.41,23.41,0,0,1,5.64-9.45q5.68-6.16,11.45-7.26a15.91,15.91,0,0,1,11.27,2.1l-4.87,7.8a9.47,9.47,0,0,0-6.27-.91,10.77,10.77,0,0,0-5.85,3.53,12.3,12.3,0,0,0-3.64,9.53q.4,5.16,5.88,10.18,5.91,5.43,11.26,5.51a11.86,11.86,0,0,0,9.27-4.16,15.59,15.59,0,0,0,3-5,19.3,19.3,0,0,0,1.34-5.47l-4.21-3.87Z"/><path class="cls-2" d="M1104.85,947.05l-36.77-26,19.28-27.27,6.22,4.41-14,19.83,8.15,5.76,13-18.46,6.2,4.39-13,18.46,10,7.07,14.52-20.54,6.2,4.38Z"/></g></g></svg>